<svg xmlns="http://www.w3.org/2000/svg" width="16" height="16" fill="none" viewBox="0 0 16 16">
    <path fill="#7A797C" fill-rule="evenodd" d="M1 6.923C1 3.652 3.652 1 6.923 1s5.923 2.652 5.923 5.923c0 1.442-.515 2.763-1.371 3.79l3.367 3.368c.21.21.21.551 0 .761-.21.21-.55.21-.761 0l-3.368-3.367c-1.027.856-2.348 1.371-3.79 1.371C3.652 12.846 1 10.194 1 6.923zm9.39 3.386c-.015.012-.029.025-.043.039-.013.013-.026.027-.038.042-.874.853-2.068 1.38-3.386 1.38-2.676 0-4.846-2.17-4.846-4.847 0-2.676 2.17-4.846 4.846-4.846 2.677 0 4.846 2.17 4.846 4.846 0 1.318-.526 2.512-1.379 3.386z" clip-rule="evenodd"/>
</svg>
