<svg xmlns="http://www.w3.org/2000/svg" width="24" height="24" fill="none" viewBox="0 0 24 24">
    <path fill="#505050" d="M13.41 12l4.3-4.29c.188-.188.294-.444.294-.71 0-.266-.106-.522-.294-.71-.188-.188-.444-.294-.71-.294-.266 0-.522.106-.71.294L12 10.59l-4.29-4.3c-.188-.188-.444-.294-.71-.294-.266 0-.522.106-.71.294-.188.188-.294.444-.294.71 0 .266.106.522.294.71l4.3 4.29-4.3 4.29c-.094.093-.168.204-.219.325-.05.122-.077.253-.077.385s.026.263.077.384c.05.122.125.233.219.326.093.094.204.168.325.219.122.05.253.077.385.077s.263-.026.385-.077c.121-.05.232-.125.325-.22l4.29-4.3 4.29 4.3c.093.095.204.17.325.22.122.05.253.077.385.077s.263-.026.384-.077c.122-.05.233-.125.326-.22.094-.092.168-.203.219-.325.05-.121.077-.252.077-.384s-.026-.263-.077-.385c-.05-.121-.125-.232-.22-.325L13.41 12z"/>
</svg>
