<svg xmlns="http://www.w3.org/2000/svg" width="24" height="24" fill="none" viewBox="0 0 24 24">
    <mask id="aa55xlxn3a" fill="#fff">
        <path d="M19.9 12.66c-.16-.183-.249-.417-.249-.66 0-.243.089-.477.249-.66l1.28-1.44c.14-.157.229-.355.25-.565.022-.21-.024-.422-.13-.605l-2-3.46c-.105-.182-.265-.327-.457-.413-.192-.086-.407-.11-.613-.067l-1.88.38c-.24.05-.488.01-.7-.112-.212-.122-.372-.316-.45-.548l-.61-1.83c-.067-.199-.195-.371-.365-.493-.17-.122-.375-.188-.585-.187h-4c-.218-.011-.434.049-.615.172-.18.123-.316.301-.385.508l-.56 1.83c-.078.232-.238.426-.45.548-.212.122-.46.161-.7.112L5 4.79c-.196-.028-.395.003-.573.089-.178.085-.326.221-.427.391L2 8.73c-.109.18-.158.391-.14.601.018.21.102.41.24.569l1.27 1.44c.16.183.249.417.249.66 0 .243-.089.477-.25.66L2.1 14.1c-.137.16-.221.359-.239.569-.018.21.031.42.14.601l2 3.46c.105.183.265.327.457.413.192.087.407.11.613.067l1.88-.38c.24-.05.488-.01.7.112.212.122.372.317.45.548l.61 1.83c.07.207.205.386.385.508.181.123.397.183.615.172h4c.21 0 .414-.065.584-.187.171-.122.299-.294.366-.493l.61-1.83c.078-.231.238-.426.45-.548.212-.122.46-.161.7-.112l1.88.38c.206.043.42.02.613-.067.192-.086.352-.23.457-.413l2-3.46c.106-.183.152-.394.13-.604-.021-.21-.11-.409-.25-.566l-1.35-1.44zM18.41 14l.8.9-1.28 2.22-1.18-.24c-.72-.147-1.47-.025-2.105.344-.636.369-1.115.958-1.345 1.656L12.92 20h-2.56L10 18.86c-.23-.698-.709-1.287-1.345-1.656s-1.385-.491-2.105-.344l-1.18.24-1.3-2.21.8-.9c.492-.55.764-1.262.764-2s-.272-1.45-.764-2l-.8-.9 1.28-2.2 1.18.24c.72.147 1.47.025 2.105-.344.636-.368 1.115-.958 1.345-1.656L10.36 4h2.56l.38 1.14c.23.698.708 1.288 1.345 1.656.636.369 1.385.491 2.105.344l1.18-.24 1.28 2.22-.8.9c-.486.549-.755 1.257-.755 1.99 0 .733.268 1.441.755 1.99zm-6.77-6c-.791 0-1.565.235-2.222.674-.658.44-1.17 1.064-1.474 1.795-.302.731-.382 1.536-.227 2.311.154.776.535 1.489 1.094 2.048.56.56 1.273.94 2.049 1.095.776.155 1.58.075 2.31-.228.732-.302 1.356-.815 1.796-1.473.44-.657.674-1.43.674-2.222 0-1.06-.421-2.078-1.172-2.828C13.718 8.422 12.701 8 11.64 8zm0 6c-.396 0-.782-.117-1.111-.337-.33-.22-.585-.532-.737-.898-.151-.365-.19-.767-.114-1.155.077-.388.268-.744.548-1.024s.636-.47 1.024-.548c.388-.077.79-.037 1.155.114.366.152.678.408.898.737.22.329.337.716.337 1.111 0 .53-.21 1.04-.586 1.414-.375.375-.884.586-1.414.586z"/>
    </mask>
    <path stroke="#fff" stroke-width="2" d="M19.9 12.66c-.16-.183-.249-.417-.249-.66 0-.243.089-.477.249-.66l1.28-1.44c.14-.157.229-.355.25-.565.022-.21-.024-.422-.13-.605l-2-3.46c-.105-.182-.265-.327-.457-.413-.192-.086-.407-.11-.613-.067l-1.88.38c-.24.05-.488.01-.7-.112-.212-.122-.372-.316-.45-.548l-.61-1.83c-.067-.199-.195-.371-.365-.493-.17-.122-.375-.188-.585-.187h-4c-.218-.011-.434.049-.615.172-.18.123-.316.301-.385.508l-.56 1.83c-.078.232-.238.426-.45.548-.212.122-.46.161-.7.112L5 4.79c-.196-.028-.395.003-.573.089-.178.085-.326.221-.427.391L2 8.73c-.109.18-.158.391-.14.601.018.21.102.41.24.569l1.27 1.44c.16.183.249.417.249.66 0 .243-.089.477-.25.66L2.1 14.1c-.137.16-.221.359-.239.569-.018.21.031.42.14.601l2 3.46c.105.183.265.327.457.413.192.087.407.11.613.067l1.88-.38c.24-.05.488-.01.7.112.212.122.372.317.45.548l.61 1.83c.07.207.205.386.385.508.181.123.397.183.615.172h4c.21 0 .414-.065.584-.187.171-.122.299-.294.366-.493l.61-1.83c.078-.231.238-.426.45-.548.212-.122.46-.161.7-.112l1.88.38c.206.043.42.02.613-.067.192-.086.352-.23.457-.413l2-3.46c.106-.183.152-.394.13-.604-.021-.21-.11-.409-.25-.566l-1.35-1.44zM18.41 14l.8.9-1.28 2.22-1.18-.24c-.72-.147-1.47-.025-2.105.344-.636.369-1.115.958-1.345 1.656L12.92 20h-2.56L10 18.86c-.23-.698-.709-1.287-1.345-1.656s-1.385-.491-2.105-.344l-1.18.24-1.3-2.21.8-.9c.492-.55.764-1.262.764-2s-.272-1.45-.764-2l-.8-.9 1.28-2.2 1.18.24c.72.147 1.47.025 2.105-.344.636-.368 1.115-.958 1.345-1.656L10.36 4h2.56l.38 1.14c.23.698.708 1.288 1.345 1.656.636.369 1.385.491 2.105.344l1.18-.24 1.28 2.22-.8.9c-.486.549-.755 1.257-.755 1.99 0 .733.268 1.441.755 1.99zm-6.77-6c-.791 0-1.565.235-2.222.674-.658.44-1.17 1.064-1.474 1.795-.302.731-.382 1.536-.227 2.311.154.776.535 1.489 1.094 2.048.56.56 1.273.94 2.049 1.095.776.155 1.58.075 2.31-.228.732-.302 1.356-.815 1.796-1.473.44-.657.674-1.43.674-2.222 0-1.06-.421-2.078-1.172-2.828C13.718 8.422 12.701 8 11.64 8zm0 6c-.396 0-.782-.117-1.111-.337-.33-.22-.585-.532-.737-.898-.151-.365-.19-.767-.114-1.155.077-.388.268-.744.548-1.024s.636-.47 1.024-.548c.388-.077.79-.037 1.155.114.366.152.678.408.898.737.22.329.337.716.337 1.111 0 .53-.21 1.04-.586 1.414-.375.375-.884.586-1.414.586z" mask="url(#aa55xlxn3a)"/>
</svg>
